<svg xmlns="http://www.w3.org/2000/svg" enable-background="new 0 0 24 24" height="24" viewBox="0 0 24 24" width="24"><path d="M12,3c4.96,0,9,4.04,9,9s-4.04,9-9,9s-9-4.04-9-9S7.04,3,12,3 M12,2C6.48,2,2,6.48,2,12s4.48,10,10,10s10-4.48,10-10 S17.52,2,12,2L12,2z M14.26,11.76c-0.43-0.25-0.98-0.48-1.66-0.7s-1.14-0.43-1.41-0.63s-0.4-0.43-0.4-0.68 c0-0.29,0.12-0.52,0.36-0.71c0.24-0.18,0.57-0.28,0.99-0.28c0.41,0,0.74,0.11,0.99,0.33c0.24,0.22,0.36,0.53,0.36,0.92h2.34 c0-0.59-0.15-1.12-0.46-1.58s-0.74-0.82-1.29-1.07c-0.33-0.15-0.7-0.24-1.08-0.3V5h-2v2.14c-0.25,0.06-0.51,0.12-0.74,0.21 C9.69,7.57,9.24,7.89,8.93,8.31C8.61,8.72,8.46,9.19,8.46,9.73c0,1.08,0.63,1.93,1.89,2.55c0.39,0.19,0.89,0.39,1.5,0.59 c0.61,0.21,1.04,0.4,1.28,0.59c0.24,0.19,0.36,0.46,0.36,0.8c0,0.3-0.11,0.54-0.34,0.71s-0.53,0.25-0.92,0.25 c-0.61,0-1.04-0.12-1.31-0.37c-0.27-0.25-0.4-0.63-0.4-1.15H8.16c0,0.64,0.16,1.21,0.48,1.7c0.32,0.49,0.8,0.88,1.44,1.16 c0.29,0.13,0.59,0.21,0.91,0.28V19h2v-2.04c0.76-0.09,1.39-0.32,1.87-0.68c0.64-0.49,0.96-1.15,0.96-2.01 C15.84,13.2,15.31,12.37,14.26,11.76z"></path></svg>