<svg xmlns="http://www.w3.org/2000/svg" enable-background="new 0 0 24 24" height="24" viewBox="0 0 24 24" width="24"><path d="M21,3H3v18h18V3z M12,13.65c-1.54,0-2.79-1.25-2.79-2.78S10.46,8.09,12,8.09s2.79,1.25,2.79,2.78S13.54,13.65,12,13.65z M12,15.53c3.96,0,6.48,1.65,6.98,4.47H5.02C5.52,17.18,8.04,15.53,12,15.53z M12.37,14.54c1.88-0.19,3.35-1.75,3.35-3.67 c0-2.05-1.66-3.71-3.72-3.71s-3.72,1.66-3.72,3.71c0,1.92,1.47,3.49,3.35,3.67C6.86,14.66,4.46,17.07,4.01,20H4V4h16v16h-0.01 C19.54,17.07,17.14,14.66,12.37,14.54z"></path></svg>